<svg xmlns="http://www.w3.org/2000/svg" width="32" height="32" viewBox="0 0 24 24">
  <defs>
    <linearGradient id="faviconGradient" x1="0%" y1="0%" x2="100%" y2="100%">
      <stop offset="0%" style="stop-color:#3b82f6;stop-opacity:1" />
      <stop offset="100%" style="stop-color:#8b5cf6;stop-opacity:1" />
    </linearGradient>
  </defs>
  
  <!-- Balance scale based on original logo, simplified for favicon -->
  <!-- Left pan -->
  <path d="m2 16 3-8 3 8c-.87.65-1.92 1-3 1s-2.13-.35-3-1Z" fill="url(#faviconGradient)"/>
  <!-- Right pan -->
  <path d="m16 16 3-8 3 8c-.87.65-1.92 1-3 1s-2.13-.35-3-1Z" fill="url(#faviconGradient)"/>
  <!-- Base beam -->
  <rect x="7" y="20" width="10" height="2" fill="url(#faviconGradient)" rx="1"/>
  <!-- Central pillar -->
  <rect x="11" y="3" width="2" height="18" fill="url(#faviconGradient)" rx="1"/>
  <!-- Top decorative curve -->
  <path d="M3 7h2c2 0 5-1 7-2 2 1 5 2 7 2h2" stroke="url(#faviconGradient)" stroke-width="2" stroke-linecap="round" fill="none"/>
</svg>
